<svg version="1.1" id="Layer_1" xmlns="http://www.w3.org/2000/svg" xmlns:xlink="http://www.w3.org/1999/xlink" x="0px" y="0px"
	 width="100%" viewBox="0 0 480 480" enable-background="new 0 0 480 480" xml:space="preserve">
<path fill="#000000" opacity="1.000000" stroke="none" 
	d="
M255.000000,481.000000 
	C170.000000,481.000000 85.500000,481.000000 1.000000,481.000000 
	C1.000000,321.000000 1.000000,161.000000 1.000000,1.000000 
	C161.000000,1.000000 321.000000,1.000000 481.000000,1.000000 
	C481.000000,161.000000 481.000000,321.000000 481.000000,481.000000 
	C405.833344,481.000000 330.666656,481.000000 255.000000,481.000000 
M353.500000,39.001259 
	C250.697296,39.001274 147.894547,39.032410 45.092018,38.901169 
	C40.394169,38.895168 38.890507,39.973747 38.895504,44.900211 
	C39.028572,176.027695 39.025490,307.155365 38.902004,438.282867 
	C38.897633,442.926758 40.233101,444.096008 44.775162,444.092010 
	C175.902679,443.976593 307.030334,443.979095 438.157867,444.083740 
	C442.577087,444.087250 444.110016,443.116943 444.105194,438.349854 
	C443.972229,307.055756 443.976196,175.761490 444.095184,44.467358 
	C444.099213,40.011639 442.839752,38.874622 438.474335,38.904297 
	C410.483978,39.094528 382.491669,39.001312 353.500000,39.001259 
z"/>
<path fill="#016402" opacity="1.000000" stroke="none" 
	d="
M354.000000,39.001259 
	C382.491669,39.001312 410.483978,39.094528 438.474335,38.904297 
	C442.839752,38.874622 444.099213,40.011639 444.095184,44.467358 
	C443.976196,175.761490 443.972229,307.055756 444.105194,438.349854 
	C444.110016,443.116943 442.577087,444.087250 438.157867,444.083740 
	C307.030334,443.979095 175.902679,443.976593 44.775162,444.092010 
	C40.233101,444.096008 38.897633,442.926758 38.902004,438.282867 
	C39.025490,307.155365 39.028572,176.027695 38.895504,44.900211 
	C38.890507,39.973747 40.394169,38.895168 45.092018,38.901169 
	C147.894547,39.032410 250.697296,39.001274 354.000000,39.001259 
M383.079254,354.730408 
	C383.053528,360.372314 382.909790,366.017883 383.086121,371.653473 
	C383.129517,373.039795 384.216339,374.393463 385.572296,376.070038 
	C386.450439,374.913788 388.021851,373.794861 388.086426,372.594818 
	C388.362732,367.460388 388.511658,362.273987 388.059235,357.163879 
	C387.821533,354.478912 386.944763,350.596985 385.103180,349.621185 
	C382.739777,348.368988 379.115967,349.495575 376.035187,349.597290 
	C376.016876,349.626556 375.998596,349.655792 375.980316,349.685059 
	C371.765503,349.685059 367.550690,349.685059 362.714600,349.685059 
	C362.714600,357.587860 362.674622,366.001251 362.789429,374.412537 
	C362.798767,375.095978 363.867035,375.764984 364.443268,376.440704 
	C365.021240,375.580109 366.074280,374.733337 366.099762,373.856720 
	C366.258972,368.379517 365.843872,362.861237 366.385895,357.433136 
	C366.569458,355.594971 368.980713,353.979279 370.373901,352.261902 
	C371.487976,353.962158 373.418152,355.596100 373.562653,357.375061 
	C373.991516,362.656067 373.647980,367.995483 373.747101,373.309448 
	C373.795929,375.926147 374.383331,378.052551 377.983978,374.684540 
	C378.323547,369.488495 378.834137,364.295898 378.938354,359.095154 
	C379.000702,355.983765 379.679230,353.862732 383.120880,353.872162 
	C383.120880,353.872162 383.177551,353.764893 383.079254,354.730408 
M72.019905,375.464386 
	C72.346741,370.153900 72.980736,364.838165 72.890007,359.534821 
	C72.831688,356.126007 73.809601,354.017090 77.649811,352.724976 
	C78.548615,351.986755 79.447418,351.248505 80.346214,350.510284 
	C79.402168,350.018280 78.494759,349.217499 77.506248,349.100220 
	C75.600601,348.874115 73.649117,349.034271 70.226181,349.034271 
	C71.694107,345.774780 72.091652,342.612091 73.812622,341.503052 
	C78.747307,338.323090 81.238510,342.908630 84.580147,346.069031 
	C85.176903,344.082794 85.545570,342.116089 84.775177,340.833618 
	C82.381157,336.848175 78.311295,336.520203 74.214745,337.142822 
	C67.386520,338.180603 67.473808,343.806519 67.069862,348.939148 
	C66.116600,348.994171 65.407196,348.873749 64.838272,349.102631 
	C63.758308,349.537018 62.758781,350.171417 61.725853,350.722748 
	C62.682930,351.417023 63.597427,352.184601 64.614738,352.775116 
	C65.136230,353.077850 65.841469,353.064026 67.010719,353.877869 
	C67.212311,354.089233 67.413910,354.300629 67.821587,355.359222 
	C67.833046,361.288849 67.847855,367.218445 67.854286,373.148071 
	C67.856796,375.465668 68.202637,377.324280 72.019905,375.464386 
M392.920410,349.541656 
	C392.623871,350.280518 392.073273,351.017883 392.068970,351.758423 
	C392.005768,362.658020 392.003082,373.558044 392.061462,384.457611 
	C392.063354,384.813904 392.863495,385.165924 393.854065,386.084351 
	C396.552765,388.474915 396.872009,386.071198 396.979095,384.328400 
	C397.180298,381.053528 397.037109,377.757538 397.037109,374.028015 
	C398.590302,374.660522 399.746643,375.199860 400.947235,375.609589 
	C410.976929,379.032104 417.310822,374.574005 417.314270,364.110779 
	C417.314819,362.448578 417.332001,360.786194 417.310883,359.124237 
	C417.214691,351.548187 413.878235,348.428436 406.180023,348.464874 
	C401.999359,348.484650 397.991882,351.493835 392.920410,349.541656 
M266.924591,374.706024 
	C267.274048,374.006683 267.923309,373.309326 267.928009,372.607697 
	C267.998169,362.068634 268.035248,351.528381 267.904816,340.990570 
	C267.892426,339.991028 266.705200,339.005981 265.457489,337.585571 
	C262.582428,336.245453 262.404602,338.331940 262.346283,340.188263 
	C262.237915,343.637421 262.315216,347.092438 262.315216,351.006989 
	C261.146576,350.471436 260.438660,350.144318 259.728577,349.822052 
	C249.391342,345.130402 241.135925,350.394745 241.135437,361.678101 
	C241.135361,363.338776 240.744858,365.124451 241.226715,366.631104 
	C241.969177,368.952545 242.776718,371.703552 244.495285,373.179138 
	C249.940918,377.854858 256.034576,377.287598 262.095428,373.905060 
	C262.147491,374.388306 262.199585,374.871582 262.251648,375.354828 
	C263.568268,375.233154 264.884918,375.111511 266.924591,374.706024 
M255.809280,170.255325 
	C254.655563,164.547150 253.892853,158.725189 252.271164,153.153214 
	C248.216690,139.222458 238.528076,131.115875 224.572830,128.060410 
	C222.181427,127.536812 219.521317,128.240494 215.986984,128.431061 
	C229.459488,142.506470 231.496078,149.600098 224.874115,163.115433 
	C220.278656,172.494659 213.841660,180.967575 209.183853,190.321640 
	C205.687241,197.343735 201.981995,204.990875 201.400116,212.591721 
	C199.950027,231.533646 215.063934,250.234177 233.805710,254.818115 
	C234.752975,255.049820 235.844162,254.693100 236.868332,254.610352 
	C236.996231,254.201645 237.124146,253.792953 237.252045,253.384262 
	C235.968384,252.645874 234.714005,251.850052 233.396439,251.178116 
	C221.353531,245.036087 217.400375,225.474823 226.350784,215.343246 
	C229.196548,212.121933 232.675217,209.460876 235.854141,206.532471 
	C243.118073,199.840958 243.877289,193.742447 238.537247,185.471985 
	C238.341125,185.168243 238.572540,184.588440 238.620682,183.913422 
	C239.526794,183.913422 240.390259,183.704208 241.100220,183.945877 
	C247.983963,186.289246 252.966568,195.036148 251.912643,202.361786 
	C251.492416,205.282608 251.161957,208.371567 251.658783,211.233246 
	C252.431305,215.683044 256.200958,217.532455 260.834320,216.371262 
	C264.972046,215.334259 266.554810,212.539764 265.521210,208.007339 
	C265.148346,206.372253 264.676147,204.759811 264.249268,203.137039 
	C264.751587,202.872345 265.253906,202.607666 265.756226,202.342972 
	C267.372620,204.277023 269.391663,205.999832 270.536102,208.181473 
	C275.676605,217.981003 275.561615,227.727661 269.130188,236.949692 
	C266.957153,240.065582 264.064758,242.671310 261.686951,245.658081 
	C260.986389,246.538101 260.922668,247.925110 260.567078,249.079773 
	C261.907379,249.301620 263.251862,249.704010 264.586365,249.673309 
	C265.313690,249.656570 266.022827,248.903046 266.742401,248.485657 
	C299.711548,229.361633 296.489075,182.265701 268.102203,162.465378 
	C267.038361,161.723312 265.690918,161.387741 264.475647,160.862732 
	C264.172760,161.189743 263.869904,161.516739 263.567017,161.843750 
	C264.211121,163.260925 264.965698,164.639572 265.476105,166.103363 
	C266.507599,169.061707 268.162323,172.083069 268.096405,175.045898 
	C268.051910,177.045135 265.856140,179.938782 263.958679,180.642838 
	C262.554840,181.163727 259.543671,179.234360 258.233185,177.604782 
	C256.878265,175.919968 256.712250,173.279068 255.809280,170.255325 
M154.747055,278.744232 
	C119.282951,244.354248 114.400017,174.558929 153.445496,135.940308 
	C156.281937,133.134857 159.338348,130.401108 161.483902,127.107323 
	C162.668976,125.288071 163.205612,120.980995 162.214920,120.245125 
	C160.227005,118.768501 156.632889,117.942398 154.356583,118.733078 
	C151.225494,119.820656 148.384323,122.343079 145.967178,124.791893 
	C124.549828,146.489807 112.902466,172.347504 112.648987,203.131210 
	C112.385475,235.132965 121.865578,263.446198 143.772507,287.170105 
	C146.129059,289.722137 148.759628,292.103851 151.578888,294.123840 
	C154.733780,296.384308 158.354965,298.461151 161.879517,294.752594 
	C165.494797,290.948639 162.884979,287.651123 160.462021,284.616058 
	C158.912552,282.675171 156.998520,281.025360 154.747055,278.744232 
M369.812958,185.484695 
	C365.634491,161.589966 354.731598,141.196594 337.559326,124.173035 
	C335.133362,121.768089 332.102173,119.596848 328.940308,118.458229 
	C327.162384,117.817970 323.872040,118.888306 322.510468,120.349976 
	C321.372070,121.572067 321.355438,124.763283 322.090546,126.576309 
	C323.044952,128.930161 325.026550,131.002289 326.927856,132.816437 
	C344.370605,149.459518 354.441681,169.780609 357.352570,193.645859 
	C360.656860,220.735901 356.532623,246.198288 339.715729,268.486298 
	C334.822418,274.971588 328.921997,280.691925 323.572510,286.840576 
	C321.407104,289.329468 319.670258,292.086517 322.555267,295.228363 
	C325.211090,298.120575 328.422913,297.673431 331.167084,295.771881 
	C334.693634,293.328156 338.163757,290.634430 341.085144,287.512238 
	C367.994415,258.753235 376.477844,224.664001 369.812958,185.484695 
M246.499405,268.730255 
	C234.010101,268.725891 221.520782,268.717346 209.031479,268.718750 
	C201.537628,268.719574 194.040558,268.606293 186.551102,268.792664 
	C181.855927,268.909485 178.727997,272.102478 178.740723,276.188324 
	C178.753326,280.234436 182.005630,283.339386 186.586197,283.626984 
	C187.747787,283.699890 188.917801,283.639374 190.083939,283.639343 
	C227.566727,283.638672 265.049500,283.639069 302.532288,283.633972 
	C304.530365,283.633698 306.892822,284.254486 308.442596,283.408356 
	C310.868591,282.083832 313.808319,280.082703 314.532501,277.748352 
	C315.160889,275.722809 313.631256,272.211670 311.911163,270.521759 
	C310.430328,269.066925 307.338104,268.804321 304.953217,268.788574 
	C285.802734,268.661926 266.651062,268.718872 246.499405,268.730255 
M334.436523,372.802826 
	C337.689789,376.485748 342.097687,377.322784 346.303040,375.976685 
	C350.008881,374.790436 353.211121,373.768433 356.793915,375.932129 
	C357.223450,376.191528 358.360779,375.278900 357.880432,375.498138 
	C357.056671,371.473572 356.228455,368.200745 355.763611,364.877136 
	C355.466827,362.755249 355.689362,360.557922 355.711395,358.394745 
	C355.754913,354.116608 354.843597,350.447113 350.160095,348.897369 
	C344.375732,346.983276 337.055817,348.371613 334.425354,352.031219 
	C333.853607,352.826630 333.152557,353.805603 333.175232,354.682861 
	C333.204498,355.816010 333.901306,356.931854 334.310669,358.055145 
	C335.109558,357.440521 336.198608,356.990967 336.658112,356.183289 
	C338.882263,352.273651 343.233917,350.858612 348.125153,352.541412 
	C352.308899,353.980835 352.324280,357.067383 351.559021,360.586700 
	C348.833160,360.199371 346.218445,359.508209 343.605804,359.516052 
	C335.462158,359.540466 330.477570,366.129974 334.436523,372.802826 
M184.834442,372.535553 
	C185.904388,373.318604 186.890549,374.268127 188.058716,374.855957 
	C193.194031,377.440155 201.132416,376.463867 204.500046,372.934692 
	C207.417313,369.877563 207.399826,367.005829 204.360641,365.208496 
	C204.076874,365.579865 203.677673,365.919067 203.510681,366.348541 
	C201.377411,371.835083 198.760742,373.480225 193.406830,372.651306 
	C188.489807,371.890045 186.575607,369.441406 186.420563,363.396576 
	C186.313782,359.233948 186.362366,355.066040 186.408875,350.901215 
	C186.455231,346.750519 187.594116,343.275360 192.284882,342.278595 
	C197.660583,341.136292 200.729813,342.751099 202.976425,347.738281 
	C203.404999,348.689606 204.155670,349.495850 204.757736,350.369049 
	C205.312500,350.272552 205.867279,350.176086 206.422043,350.079620 
	C206.265579,348.101166 206.617477,345.896118 205.855774,344.187500 
	C203.711487,339.377563 199.169662,338.514313 194.524963,338.519135 
	C189.816452,338.524048 184.654175,339.566650 183.566040,344.598022 
	C181.610031,353.642273 180.752121,362.957733 184.834442,372.535553 
M167.765076,376.260559 
	C175.090424,374.466461 176.549667,373.103027 175.465286,369.065979 
	C166.046417,373.365784 160.395599,374.266815 157.497070,371.010803 
	C155.942322,369.264343 155.754822,366.300751 154.749603,363.283844 
	C161.203629,363.283844 166.198013,363.059784 171.162506,363.348999 
	C175.811630,363.619843 176.555862,361.328400 175.895050,357.509247 
	C174.877808,351.630280 170.749313,348.459778 164.010559,348.497070 
	C157.176376,348.534943 152.634918,351.559540 151.885864,356.572144 
	C150.144867,368.222656 152.109390,373.976166 158.531113,375.828217 
	C159.800217,376.194244 161.146927,376.372162 162.469025,376.452148 
	C163.958405,376.542267 165.460419,376.423462 167.765076,376.260559 
M292.511749,375.165161 
	C294.671875,373.720276 297.839355,372.925079 296.613251,369.074097 
	C279.954590,374.898163 275.046082,373.560059 276.677551,363.293091 
	C282.036377,363.293091 287.477844,363.209991 292.914978,363.327271 
	C295.745636,363.388306 296.742920,362.138489 296.724274,359.443085 
	C296.685486,353.843628 293.568207,349.905090 288.135803,348.840881 
	C277.794678,346.815063 272.333466,351.343414 272.329895,361.946869 
	C272.329559,362.943390 272.321991,363.939941 272.331207,364.936401 
	C272.403992,372.807159 275.510254,376.175232 283.427673,376.424713 
	C286.194916,376.511902 288.987640,375.790375 292.511749,375.165161 
M121.609695,361.623077 
	C121.613441,363.456116 121.110466,365.487518 121.733177,367.078247 
	C122.815964,369.844269 123.962692,373.486603 126.205154,374.718994 
	C131.717392,377.748444 137.843353,377.316650 143.375290,374.108826 
	C144.799179,373.283142 145.548828,371.294739 146.608215,369.840485 
	C134.869873,373.210785 130.062408,374.068634 127.415443,371.155975 
	C125.808533,369.387756 125.514503,366.426392 124.367737,363.279449 
	C130.902618,363.279449 136.052505,363.078613 141.178650,363.341156 
	C145.499069,363.562500 146.345963,361.476562 145.805664,357.822693 
	C144.866257,351.470001 140.081680,348.042511 132.658051,348.507324 
	C124.767838,349.001343 121.689362,352.410217 121.609695,361.623077 
M317.128204,342.135559 
	C322.788910,341.800385 322.522308,348.000519 326.560547,350.158722 
	C326.870392,347.641602 326.939209,345.088837 325.885010,343.145264 
	C323.680847,339.081696 316.955170,337.425659 310.965240,338.985260 
	C305.984070,340.282196 303.297516,343.646729 303.065613,348.672089 
	C302.820099,353.992798 303.066406,359.334229 302.954285,364.663574 
	C302.842865,369.958130 305.040833,373.648865 310.066833,375.472992 
	C315.444122,377.424622 322.526917,376.153595 325.417572,372.509613 
	C327.240814,370.211182 328.919952,367.588165 325.510834,364.636688 
	C324.875122,365.495728 324.265869,366.054718 323.980316,366.747162 
	C321.901093,371.789398 319.226074,373.424194 314.122253,372.670380 
	C309.346619,371.965027 307.277557,369.519958 307.082275,363.969910 
	C306.935913,359.809326 306.959381,355.638916 307.034882,351.475250 
	C307.163330,344.391571 309.172211,342.408295 317.128204,342.135559 
M221.199005,348.646973 
	C213.767685,350.297302 212.141220,352.304749 212.120483,359.880768 
	C212.113190,362.542236 212.020401,365.209503 212.159195,367.864044 
	C212.408295,372.628082 215.146240,375.293152 220.477753,376.180267 
	C227.556335,377.358063 234.078217,375.355255 235.606705,371.406769 
	C236.010086,370.364685 236.008652,369.129669 236.025146,367.980835 
	C236.075317,364.488281 235.868576,360.983734 236.084351,357.503815 
	C236.407562,352.291016 233.549805,349.825836 228.957718,348.947327 
	C226.701141,348.515594 224.333344,348.665375 221.199005,348.646973 
M112.998199,356.623566 
	C113.860443,355.764954 115.471451,354.894318 115.457863,354.049835 
	C115.392075,349.964111 111.234772,347.475983 107.103134,348.925507 
	C105.594482,349.454834 104.243225,350.432770 102.888031,351.169189 
	C99.536530,348.291504 94.832306,348.206726 90.665268,351.501251 
	C93.698151,352.171204 96.078247,352.696960 98.542953,353.241394 
	C98.542953,359.508759 98.542953,365.758423 98.542953,372.018005 
	C95.951241,372.555695 93.563553,373.051056 91.175865,373.546417 
	C91.230507,374.101379 91.285149,374.656372 91.339783,375.211365 
	C97.863281,375.211365 104.386772,375.211365 110.910271,375.211365 
	C111.005280,374.620850 111.100288,374.030304 111.195297,373.439789 
	C108.281670,372.898468 105.368042,372.357147 102.378159,371.801666 
	C102.378159,367.229858 101.759781,362.774994 102.614922,358.623657 
	C103.111320,356.213928 105.782700,354.041931 107.947113,352.375763 
	C108.347069,352.067902 111.003258,354.691010 112.998199,356.623566 
z"/>
<path fill="#F7FAF7" opacity="1.000000" stroke="none" 
	d="
M255.917725,170.655853 
	C256.712250,173.279068 256.878265,175.919968 258.233185,177.604782 
	C259.543671,179.234360 262.554840,181.163727 263.958679,180.642838 
	C265.856140,179.938782 268.051910,177.045135 268.096405,175.045898 
	C268.162323,172.083069 266.507599,169.061707 265.476105,166.103363 
	C264.965698,164.639572 264.211121,163.260925 263.567017,161.843750 
	C263.869904,161.516739 264.172760,161.189743 264.475647,160.862732 
	C265.690918,161.387741 267.038361,161.723312 268.102203,162.465378 
	C296.489075,182.265701 299.711548,229.361633 266.742401,248.485657 
	C266.022827,248.903046 265.313690,249.656570 264.586365,249.673309 
	C263.251862,249.704010 261.907379,249.301620 260.567078,249.079773 
	C260.922668,247.925110 260.986389,246.538101 261.686951,245.658081 
	C264.064758,242.671310 266.957153,240.065582 269.130188,236.949692 
	C275.561615,227.727661 275.676605,217.981003 270.536102,208.181473 
	C269.391663,205.999832 267.372620,204.277023 265.756226,202.342972 
	C265.253906,202.607666 264.751587,202.872345 264.249268,203.137039 
	C264.676147,204.759811 265.148346,206.372253 265.521210,208.007339 
	C266.554810,212.539764 264.972046,215.334259 260.834320,216.371262 
	C256.200958,217.532455 252.431305,215.683044 251.658783,211.233246 
	C251.161957,208.371567 251.492416,205.282608 251.912643,202.361786 
	C252.966568,195.036148 247.983963,186.289246 241.100220,183.945877 
	C240.390259,183.704208 239.526794,183.913422 238.620682,183.913422 
	C238.572540,184.588440 238.341125,185.168243 238.537247,185.471985 
	C243.877289,193.742447 243.118073,199.840958 235.854141,206.532471 
	C232.675217,209.460876 229.196548,212.121933 226.350784,215.343246 
	C217.400375,225.474823 221.353531,245.036087 233.396439,251.178116 
	C234.714005,251.850052 235.968384,252.645874 237.252045,253.384262 
	C237.124146,253.792953 236.996231,254.201645 236.868332,254.610352 
	C235.844162,254.693100 234.752975,255.049820 233.805710,254.818115 
	C215.063934,250.234177 199.950027,231.533646 201.400116,212.591721 
	C201.981995,204.990875 205.687241,197.343735 209.183853,190.321640 
	C213.841660,180.967575 220.278656,172.494659 224.874115,163.115433 
	C231.496078,149.600098 229.459488,142.506470 215.986984,128.431061 
	C219.521317,128.240494 222.181427,127.536812 224.572830,128.060410 
	C238.528076,131.115875 248.216690,139.222458 252.271164,153.153214 
	C253.892853,158.725189 254.655563,164.547150 255.917725,170.655853 
z"/>
<path fill="#F4F8F4" opacity="1.000000" stroke="none" 
	d="
M154.997498,278.994629 
	C156.998520,281.025360 158.912552,282.675171 160.462021,284.616058 
	C162.884979,287.651123 165.494797,290.948639 161.879517,294.752594 
	C158.354965,298.461151 154.733780,296.384308 151.578888,294.123840 
	C148.759628,292.103851 146.129059,289.722137 143.772507,287.170105 
	C121.865578,263.446198 112.385475,235.132965 112.648987,203.131210 
	C112.902466,172.347504 124.549828,146.489807 145.967178,124.791893 
	C148.384323,122.343079 151.225494,119.820656 154.356583,118.733078 
	C156.632889,117.942398 160.227005,118.768501 162.214920,120.245125 
	C163.205612,120.980995 162.668976,125.288071 161.483902,127.107323 
	C159.338348,130.401108 156.281937,133.134857 153.445496,135.940308 
	C114.400017,174.558929 119.282951,244.354248 154.997498,278.994629 
z"/>
<path fill="#F3F8F3" opacity="1.000000" stroke="none" 
	d="
M369.895569,185.907089 
	C376.477844,224.664001 367.994415,258.753235 341.085144,287.512238 
	C338.163757,290.634430 334.693634,293.328156 331.167084,295.771881 
	C328.422913,297.673431 325.211090,298.120575 322.555267,295.228363 
	C319.670258,292.086517 321.407104,289.329468 323.572510,286.840576 
	C328.921997,280.691925 334.822418,274.971588 339.715729,268.486298 
	C356.532623,246.198288 360.656860,220.735901 357.352570,193.645859 
	C354.441681,169.780609 344.370605,149.459518 326.927856,132.816437 
	C325.026550,131.002289 323.044952,128.930161 322.090546,126.576309 
	C321.355438,124.763283 321.372070,121.572067 322.510468,120.349976 
	C323.872040,118.888306 327.162384,117.817970 328.940308,118.458229 
	C332.102173,119.596848 335.133362,121.768089 337.559326,124.173035 
	C354.731598,141.196594 365.634491,161.589966 369.895569,185.907089 
z"/>
<path fill="#F1F7F1" opacity="1.000000" stroke="none" 
	d="
M246.999588,268.724976 
	C266.651062,268.718872 285.802734,268.661926 304.953217,268.788574 
	C307.338104,268.804321 310.430328,269.066925 311.911163,270.521759 
	C313.631256,272.211670 315.160889,275.722809 314.532501,277.748352 
	C313.808319,280.082703 310.868591,282.083832 308.442596,283.408356 
	C306.892822,284.254486 304.530365,283.633698 302.532288,283.633972 
	C265.049500,283.639069 227.566727,283.638672 190.083939,283.639343 
	C188.917801,283.639374 187.747787,283.699890 186.586197,283.626984 
	C182.005630,283.339386 178.753326,280.234436 178.740723,276.188324 
	C178.727997,272.102478 181.855927,268.909485 186.551102,268.792664 
	C194.040558,268.606293 201.537628,268.719574 209.031479,268.718750 
	C221.520782,268.717346 234.010101,268.725891 246.999588,268.724976 
z"/>
<path fill="#DDEADD" opacity="1.000000" stroke="none" 
	d="
M266.201538,374.989838 
	C264.884918,375.111511 263.568268,375.233154 262.251648,375.354828 
	C262.199585,374.871582 262.147491,374.388306 262.095428,373.905060 
	C256.034576,377.287598 249.940918,377.854858 244.495285,373.179138 
	C242.776718,371.703552 241.969177,368.952545 241.226715,366.631104 
	C240.744858,365.124451 241.135361,363.338776 241.135437,361.678101 
	C241.135925,350.394745 249.391342,345.130402 259.728577,349.822052 
	C260.438660,350.144318 261.146576,350.471436 262.315216,351.006989 
	C262.315216,347.092438 262.237915,343.637421 262.346283,340.188263 
	C262.404602,338.331940 262.582428,336.245453 265.753510,338.266998 
	C266.100220,350.962219 266.150879,362.976044 266.201538,374.989838 
M253.631546,372.970154 
	C261.125519,372.390686 262.640076,370.828705 262.639313,363.680756 
	C262.639160,362.186523 262.440002,360.659637 262.678314,359.204437 
	C263.305450,355.375153 261.055084,353.844818 257.972260,352.788635 
	C250.514999,350.233734 245.972214,353.389740 245.973694,361.163086 
	C245.973907,362.325256 246.090363,363.501495 245.952805,364.647186 
	C245.328125,369.850250 247.771606,372.450134 253.631546,372.970154 
z"/>
<path fill="#EBF3EB" opacity="1.000000" stroke="none" 
	d="
M377.276886,374.986084 
	C374.383331,378.052551 373.795929,375.926147 373.747101,373.309448 
	C373.647980,367.995483 373.991516,362.656067 373.562653,357.375061 
	C373.418152,355.596100 371.487976,353.962158 370.373901,352.261902 
	C368.980713,353.979279 366.569458,355.594971 366.385895,357.433136 
	C365.843872,362.861237 366.258972,368.379517 366.099762,373.856720 
	C366.074280,374.733337 365.021240,375.580109 364.443268,376.440704 
	C363.867035,375.764984 362.798767,375.095978 362.789429,374.412537 
	C362.674622,366.001251 362.714600,357.587860 362.714600,349.685059 
	C367.550690,349.685059 371.765503,349.685059 375.980316,349.685059 
	C375.998596,349.655792 376.016876,349.626556 376.035187,349.597290 
	C379.115967,349.495575 382.739777,348.368988 385.103180,349.621185 
	C386.944763,350.596985 387.821533,354.478912 388.059235,357.163879 
	C388.511658,362.273987 388.362732,367.460388 388.086426,372.594818 
	C388.021851,373.794861 386.450439,374.913788 385.148071,375.465454 
	C384.686859,369.256012 384.743622,363.647888 384.548584,358.048553 
	C384.498352,356.606537 383.656006,355.192047 383.177551,353.764893 
	C383.177551,353.764893 383.120880,353.872162 382.944641,353.501404 
	C378.819000,352.104828 376.897858,353.297333 377.097015,357.707336 
	C377.356720,363.457886 377.234650,369.225708 377.276886,374.986084 
z"/>
<path fill="#DEEBDE" opacity="1.000000" stroke="none" 
	d="
M334.231140,372.474609 
	C330.477570,366.129974 335.462158,359.540466 343.605804,359.516052 
	C346.218445,359.508209 348.833160,360.199371 351.559021,360.586700 
	C352.324280,357.067383 352.308899,353.980835 348.125153,352.541412 
	C343.233917,350.858612 338.882263,352.273651 336.658112,356.183289 
	C336.198608,356.990967 335.109558,357.440521 334.310669,358.055145 
	C333.901306,356.931854 333.204498,355.816010 333.175232,354.682861 
	C333.152557,353.805603 333.853607,352.826630 334.425354,352.031219 
	C337.055817,348.371613 344.375732,346.983276 350.160095,348.897369 
	C354.843597,350.447113 355.754913,354.116608 355.711395,358.394745 
	C355.689362,360.557922 355.466827,362.755249 355.763611,364.877136 
	C356.228455,368.200745 357.056671,371.473572 357.880432,375.498138 
	C358.360779,375.278900 357.223450,376.191528 356.793915,375.932129 
	C353.211121,373.768433 350.008881,374.790436 346.303040,375.976685 
	C342.097687,377.322784 337.689789,376.485748 334.231140,372.474609 
M341.876862,372.967285 
	C344.814148,372.159882 347.893280,371.654602 350.610504,370.378632 
	C351.541687,369.941345 351.965698,367.542603 351.851440,366.101074 
	C351.786041,365.276276 350.263062,364.116547 349.235626,363.911041 
	C346.998566,363.463654 344.478607,362.933014 342.411255,363.555542 
	C340.342773,364.178375 338.684631,366.163971 336.846619,367.552216 
	C338.255463,369.299896 339.664276,371.047577 341.876862,372.967285 
z"/>
<path fill="#E8F1E8" opacity="1.000000" stroke="none" 
	d="
M393.691833,349.160797 
	C397.991882,351.493835 401.999359,348.484650 406.180023,348.464874 
	C413.878235,348.428436 417.214691,351.548187 417.310883,359.124237 
	C417.332001,360.786194 417.314819,362.448578 417.314270,364.110779 
	C417.310822,374.574005 410.976929,379.032104 400.947235,375.609589 
	C399.746643,375.199860 398.590302,374.660522 397.037109,374.028015 
	C397.037109,377.757538 397.180298,381.053528 396.979095,384.328400 
	C396.872009,386.071198 396.552765,388.474915 393.653198,385.371368 
	C393.532166,372.825867 393.612000,360.993317 393.691833,349.160797 
M413.691650,368.661713 
	C413.723175,365.668335 413.799683,362.674561 413.776337,359.681641 
	C413.734863,354.366577 411.958740,352.480927 406.756256,352.109314 
	C400.017456,351.628021 396.833527,354.418823 396.940857,361.033966 
	C396.990448,364.086761 396.534332,367.811523 398.055328,370.037079 
	C401.120850,374.522461 409.429810,373.817200 413.691650,368.661713 
z"/>
<path fill="#E3EEE3" opacity="1.000000" stroke="none" 
	d="
M184.571426,372.263794 
	C180.752121,362.957733 181.610031,353.642273 183.566040,344.598022 
	C184.654175,339.566650 189.816452,338.524048 194.524963,338.519135 
	C199.169662,338.514313 203.711487,339.377563 205.855774,344.187500 
	C206.617477,345.896118 206.265579,348.101166 206.422043,350.079620 
	C205.867279,350.176086 205.312500,350.272552 204.757736,350.369049 
	C204.155670,349.495850 203.404999,348.689606 202.976425,347.738281 
	C200.729813,342.751099 197.660583,341.136292 192.284882,342.278595 
	C187.594116,343.275360 186.455231,346.750519 186.408875,350.901215 
	C186.362366,355.066040 186.313782,359.233948 186.420563,363.396576 
	C186.575607,369.441406 188.489807,371.890045 193.406830,372.651306 
	C198.760742,373.480225 201.377411,371.835083 203.510681,366.348541 
	C203.677673,365.919067 204.076874,365.579865 204.360641,365.208496 
	C207.399826,367.005829 207.417313,369.877563 204.500046,372.934692 
	C201.132416,376.463867 193.194031,377.440155 188.058716,374.855957 
	C186.890549,374.268127 185.904388,373.318604 184.571426,372.263794 
z"/>
<path fill="#E6F0E6" opacity="1.000000" stroke="none" 
	d="
M167.361008,376.328064 
	C165.460419,376.423462 163.958405,376.542267 162.469025,376.452148 
	C161.146927,376.372162 159.800217,376.194244 158.531113,375.828217 
	C152.109390,373.976166 150.144867,368.222656 151.885864,356.572144 
	C152.634918,351.559540 157.176376,348.534943 164.010559,348.497070 
	C170.749313,348.459778 174.877808,351.630280 175.895050,357.509247 
	C176.555862,361.328400 175.811630,363.619843 171.162506,363.348999 
	C166.198013,363.059784 161.203629,363.283844 154.749603,363.283844 
	C155.754822,366.300751 155.942322,369.264343 157.497070,371.010803 
	C160.395599,374.266815 166.046417,373.365784 175.465286,369.065979 
	C176.549667,373.103027 175.090424,374.466461 167.361008,376.328064 
M159.610855,352.680786 
	C156.777267,353.866516 154.876221,355.624939 155.529572,359.294189 
	C161.203842,359.294189 166.705154,359.294189 172.269272,359.294189 
	C171.176361,352.777832 168.220810,351.171478 159.610855,352.680786 
z"/>
<path fill="#E3EEE3" opacity="1.000000" stroke="none" 
	d="
M292.140228,375.301636 
	C288.987640,375.790375 286.194916,376.511902 283.427673,376.424713 
	C275.510254,376.175232 272.403992,372.807159 272.331207,364.936401 
	C272.321991,363.939941 272.329559,362.943390 272.329895,361.946869 
	C272.333466,351.343414 277.794678,346.815063 288.135803,348.840881 
	C293.568207,349.905090 296.685486,353.843628 296.724274,359.443085 
	C296.742920,362.138489 295.745636,363.388306 292.914978,363.327271 
	C287.477844,363.209991 282.036377,363.293091 276.677551,363.293091 
	C275.046082,373.560059 279.954590,374.898163 296.613251,369.074097 
	C297.839355,372.925079 294.671875,373.720276 292.140228,375.301636 
M279.005890,353.258118 
	C277.820892,355.067932 276.635895,356.877716 275.024078,359.339355 
	C281.968079,359.339355 287.365875,359.339355 292.798492,359.339355 
	C291.976959,352.564484 287.831848,350.626251 279.005890,353.258118 
z"/>
<path fill="#E7F0E7" opacity="1.000000" stroke="none" 
	d="
M121.609718,361.182190 
	C121.689362,352.410217 124.767838,349.001343 132.658051,348.507324 
	C140.081680,348.042511 144.866257,351.470001 145.805664,357.822693 
	C146.345963,361.476562 145.499069,363.562500 141.178650,363.341156 
	C136.052505,363.078613 130.902618,363.279449 124.367737,363.279449 
	C125.514503,366.426392 125.808533,369.387756 127.415443,371.155975 
	C130.062408,374.068634 134.869873,373.210785 146.608215,369.840485 
	C145.548828,371.294739 144.799179,373.283142 143.375290,374.108826 
	C137.843353,377.316650 131.717392,377.748444 126.205154,374.718994 
	C123.962692,373.486603 122.815964,369.844269 121.733177,367.078247 
	C121.110466,365.487518 121.613441,363.456116 121.609718,361.182190 
M140.376678,354.207825 
	C136.562210,351.239990 132.306046,351.098602 128.330887,353.298279 
	C126.618454,354.245880 125.773010,356.760254 124.006065,359.330261 
	C131.020569,359.330261 136.497375,359.330261 142.648956,359.330261 
	C141.920471,357.459045 141.408798,356.144714 140.376678,354.207825 
z"/>
<path fill="#E5EFE5" opacity="1.000000" stroke="none" 
	d="
M316.720734,342.117126 
	C309.172211,342.408295 307.163330,344.391571 307.034882,351.475250 
	C306.959381,355.638916 306.935913,359.809326 307.082275,363.969910 
	C307.277557,369.519958 309.346619,371.965027 314.122253,372.670380 
	C319.226074,373.424194 321.901093,371.789398 323.980316,366.747162 
	C324.265869,366.054718 324.875122,365.495728 325.510834,364.636688 
	C328.919952,367.588165 327.240814,370.211182 325.417572,372.509613 
	C322.526917,376.153595 315.444122,377.424622 310.066833,375.472992 
	C305.040833,373.648865 302.842865,369.958130 302.954285,364.663574 
	C303.066406,359.334229 302.820099,353.992798 303.065613,348.672089 
	C303.297516,343.646729 305.984070,340.282196 310.965240,338.985260 
	C316.955170,337.425659 323.680847,339.081696 325.885010,343.145264 
	C326.939209,345.088837 326.870392,347.641602 326.560547,350.158722 
	C322.522308,348.000519 322.788910,341.800385 316.720734,342.117126 
z"/>
<path fill="#DEEBDE" opacity="1.000000" stroke="none" 
	d="
M66.463669,353.193268 
	C65.841469,353.064026 65.136230,353.077850 64.614738,352.775116 
	C63.597427,352.184601 62.682930,351.417023 61.725853,350.722748 
	C62.758781,350.171417 63.758308,349.537018 64.838272,349.102631 
	C65.407196,348.873749 66.116600,348.994171 67.069862,348.939148 
	C67.473808,343.806519 67.386520,338.180603 74.214745,337.142822 
	C78.311295,336.520203 82.381157,336.848175 84.775177,340.833618 
	C85.545570,342.116089 85.176903,344.082794 84.580147,346.069031 
	C81.238510,342.908630 78.747307,338.323090 73.812622,341.503052 
	C72.091652,342.612091 71.694107,345.774780 70.226181,349.034271 
	C73.649117,349.034271 75.600601,348.874115 77.506248,349.100220 
	C78.494759,349.217499 79.402168,350.018280 80.346214,350.510284 
	C79.447418,351.248505 78.548615,351.986755 76.859283,352.734314 
	C74.527000,352.815948 72.985252,352.888214 71.222656,352.970825 
	C71.222656,361.015350 71.222656,368.409821 71.222656,375.804291 
	C68.202637,377.324280 67.856796,375.465668 67.854286,373.148071 
	C67.847855,367.218445 67.833046,361.288849 67.831238,354.684021 
	C67.381805,353.736969 66.922737,353.465118 66.463669,353.193268 
z"/>
<path fill="#E5EFE4" opacity="1.000000" stroke="none" 
	d="
M221.607437,348.599487 
	C224.333344,348.665375 226.701141,348.515594 228.957718,348.947327 
	C233.549805,349.825836 236.407562,352.291016 236.084351,357.503815 
	C235.868576,360.983734 236.075317,364.488281 236.025146,367.980835 
	C236.008652,369.129669 236.010086,370.364685 235.606705,371.406769 
	C234.078217,375.355255 227.556335,377.358063 220.477753,376.180267 
	C215.146240,375.293152 212.408295,372.628082 212.159195,367.864044 
	C212.020401,365.209503 212.113190,362.542236 212.120483,359.880768 
	C212.141220,352.304749 213.767685,350.297302 221.607437,348.599487 
M232.708237,368.662323 
	C232.758987,365.183228 233.149658,361.661835 232.724182,358.242004 
	C232.494354,356.394653 231.305481,353.957855 229.800339,353.098175 
	C222.515717,348.937378 215.780838,352.990143 215.777817,361.233154 
	C215.777084,363.222687 215.451828,365.288879 215.888336,367.178284 
	C216.259018,368.782654 217.160736,370.692169 218.441925,371.577759 
	C222.219025,374.188507 229.043015,372.967010 232.708237,368.662323 
z"/>
<path fill="#E6F0E6" opacity="1.000000" stroke="none" 
	d="
M112.808136,356.292450 
	C111.003258,354.691010 108.347069,352.067902 107.947113,352.375763 
	C105.782700,354.041931 103.111320,356.213928 102.614922,358.623657 
	C101.759781,362.774994 102.378159,367.229858 102.378159,371.801666 
	C105.368042,372.357147 108.281670,372.898468 111.195297,373.439789 
	C111.100288,374.030304 111.005280,374.620850 110.910271,375.211365 
	C104.386772,375.211365 97.863281,375.211365 91.339783,375.211365 
	C91.285149,374.656372 91.230507,374.101379 91.175865,373.546417 
	C93.563553,373.051056 95.951241,372.555695 98.542953,372.018005 
	C98.542953,365.758423 98.542953,359.508759 98.542953,353.241394 
	C96.078247,352.696960 93.698151,352.171204 90.665268,351.501251 
	C94.832306,348.206726 99.536530,348.291504 102.888031,351.169189 
	C104.243225,350.432770 105.594482,349.454834 107.103134,348.925507 
	C111.234772,347.475983 115.392075,349.964111 115.457863,354.049835 
	C115.471451,354.894318 113.860443,355.764954 112.808136,356.292450 
z"/>
<path fill="#004F00" opacity="1.000000" stroke="none" 
	d="
M266.563049,374.847931 
	C266.150879,362.976044 266.100220,350.962219 266.056458,338.481323 
	C266.705200,339.005981 267.892426,339.991028 267.904816,340.990570 
	C268.035248,351.528381 267.998169,362.068634 267.928009,372.607697 
	C267.923309,373.309326 267.274048,374.006683 266.563049,374.847931 
z"/>
<path fill="#004F00" opacity="1.000000" stroke="none" 
	d="
M377.630432,374.835327 
	C377.234650,369.225708 377.356720,363.457886 377.097015,357.707336 
	C376.897858,353.297333 378.819000,352.104828 382.999084,353.474670 
	C379.679230,353.862732 379.000702,355.983765 378.938354,359.095154 
	C378.834137,364.295898 378.323547,369.488495 377.630432,374.835327 
z"/>
<path fill="#004F00" opacity="1.000000" stroke="none" 
	d="
M393.306122,349.351227 
	C393.612000,360.993317 393.532166,372.825867 393.371948,385.089172 
	C392.863495,385.165924 392.063354,384.813904 392.061462,384.457611 
	C392.003082,373.558044 392.005768,362.658020 392.068970,351.758423 
	C392.073273,351.017883 392.623871,350.280518 393.306122,349.351227 
z"/>
<path fill="#004F00" opacity="1.000000" stroke="none" 
	d="
M71.621277,375.634338 
	C71.222656,368.409821 71.222656,361.015350 71.222656,352.970825 
	C72.985252,352.888214 74.527000,352.815948 76.537659,352.852600 
	C73.809601,354.017090 72.831688,356.126007 72.890007,359.534821 
	C72.980736,364.838165 72.346741,370.153900 71.621277,375.634338 
z"/>
<path fill="#004F00" opacity="1.000000" stroke="none" 
	d="
M383.128387,354.247650 
	C383.656006,355.192047 384.498352,356.606537 384.548584,358.048553 
	C384.743622,363.647888 384.686859,369.256012 384.773651,375.311493 
	C384.216339,374.393463 383.129517,373.039795 383.086121,371.653473 
	C382.909790,366.017883 383.053528,360.372314 383.128387,354.247650 
z"/>
<path fill="#0C670C" opacity="1.000000" stroke="none" 
	d="
M253.222412,372.948792 
	C247.771606,372.450134 245.328125,369.850250 245.952805,364.647186 
	C246.090363,363.501495 245.973907,362.325256 245.973694,361.163086 
	C245.972214,353.389740 250.514999,350.233734 257.972260,352.788635 
	C261.055084,353.844818 263.305450,355.375153 262.678314,359.204437 
	C262.440002,360.659637 262.639160,362.186523 262.639313,363.680756 
	C262.640076,370.828705 261.125519,372.390686 253.222412,372.948792 
z"/>
<path fill="#106710" opacity="1.000000" stroke="none" 
	d="
M341.474976,372.881287 
	C339.664276,371.047577 338.255463,369.299896 336.846619,367.552216 
	C338.684631,366.163971 340.342773,364.178375 342.411255,363.555542 
	C344.478607,362.933014 346.998566,363.463654 349.235626,363.911041 
	C350.263062,364.116547 351.786041,365.276276 351.851440,366.101074 
	C351.965698,367.542603 351.541687,369.941345 350.610504,370.378632 
	C347.893280,371.654602 344.814148,372.159882 341.474976,372.881287 
z"/>
<path fill="#0A650B" opacity="1.000000" stroke="none" 
	d="
M413.536621,369.055237 
	C409.429810,373.817200 401.120850,374.522461 398.055328,370.037079 
	C396.534332,367.811523 396.990448,364.086761 396.940857,361.033966 
	C396.833527,354.418823 400.017456,351.628021 406.756256,352.109314 
	C411.958740,352.480927 413.734863,354.366577 413.776337,359.681641 
	C413.799683,362.674561 413.723175,365.668335 413.536621,369.055237 
z"/>
<path fill="#1A6C1A" opacity="1.000000" stroke="none" 
	d="
M159.997345,352.569336 
	C168.220810,351.171478 171.176361,352.777832 172.269272,359.294189 
	C166.705154,359.294189 161.203842,359.294189 155.529572,359.294189 
	C154.876221,355.624939 156.777267,353.866516 159.997345,352.569336 
z"/>
<path fill="#186A18" opacity="1.000000" stroke="none" 
	d="
M279.369293,353.078613 
	C287.831848,350.626251 291.976959,352.564484 292.798492,359.339355 
	C287.365875,359.339355 281.968079,359.339355 275.024078,359.339355 
	C276.635895,356.877716 277.820892,355.067932 279.369293,353.078613 
z"/>
<path fill="#186A18" opacity="1.000000" stroke="none" 
	d="
M140.636902,354.519104 
	C141.408798,356.144714 141.920471,357.459045 142.648956,359.330261 
	C136.497375,359.330261 131.020569,359.330261 124.006065,359.330261 
	C125.773010,356.760254 126.618454,354.245880 128.330887,353.298279 
	C132.306046,351.098602 136.562210,351.239990 140.636902,354.519104 
z"/>
<path fill="#016402" opacity="1.000000" stroke="none" 
	d="
M66.737198,353.535583 
	C66.922737,353.465118 67.381805,353.736969 67.728195,354.260437 
	C67.413910,354.300629 67.212311,354.089233 66.737198,353.535583 
z"/>
<path fill="#09650A" opacity="1.000000" stroke="none" 
	d="
M232.582001,369.066711 
	C229.043015,372.967010 222.219025,374.188507 218.441925,371.577759 
	C217.160736,370.692169 216.259018,368.782654 215.888336,367.178284 
	C215.451828,365.288879 215.777084,363.222687 215.777817,361.233154 
	C215.780838,352.990143 222.515717,348.937378 229.800339,353.098175 
	C231.305481,353.957855 232.494354,356.394653 232.724182,358.242004 
	C233.149658,361.661835 232.758987,365.183228 232.582001,369.066711 
z"/>
</svg>